<svg width="209" height="69" viewBox="0 0 209 69" fill="none" xmlns="http://www.w3.org/2000/svg">
<path d="M3.46523 34.8643C1.73259 33.5624 0.433105 31.3924 0.433105 29.0054C0.433105 23.5804 5.48665 19.8915 9.60167 19.3128L16.5322 1.01263C16.5322 1.01263 16.7488 0.361633 17.3264 0.361633C17.9761 0.361633 18.1205 1.01263 18.1205 1.01263L31.9816 36.3833C31.9816 36.3833 32.2704 36.6727 32.4148 36.745C33.2089 36.8897 33.8587 37.3237 33.8587 38.1193C33.8587 38.8426 33.2811 39.2043 32.7036 39.2043C31.9094 39.2043 31.2597 38.481 30.9709 37.7576C29.1661 33.4177 28.2276 31.103 27.5056 29.9457C23.9682 24.3761 17.8317 20.6148 12.1284 20.6148C7.0749 20.6148 2.02136 24.0868 2.02136 29.0777C2.02136 32.0434 4.47594 34.6473 7.58026 34.6473C10.3236 34.6473 11.9119 32.7667 11.9119 30.452C11.9119 28.5714 10.9012 27.7757 9.96264 27.7757C9.3129 27.7757 9.16851 28.7884 8.30219 28.7884C7.65245 28.7884 7.1471 28.4991 7.1471 27.6311C7.1471 26.6184 8.30219 25.9674 9.3129 25.9674C11.6231 25.9674 13.5001 27.7034 13.5001 30.452C13.5001 33.5624 10.9733 36.2387 7.65245 36.2387C6.56955 36.2387 5.63103 36.094 4.76471 35.66C4.47594 36.3833 3.97058 37.396 3.68181 37.9023C3.32084 38.5533 2.7433 39.349 1.94917 39.349C1.37162 39.349 0.794073 38.9873 0.794073 38.264C0.794073 37.4683 1.44381 37.0343 2.23794 36.8897C2.38233 36.8897 2.59891 36.745 2.6711 36.528C2.95988 36.094 3.10426 35.7323 3.46523 34.9367V34.8643ZM11.2621 19.0958H12.1284C17.1098 19.0958 22.4521 21.8445 26.2062 25.9674L17.3264 3.32728L11.2621 19.0958Z" fill="black" stroke="black" stroke-width="0.12" stroke-miterlimit="10"/>
<path d="M40.9336 19.3128C40.9336 18.4448 39.9229 18.3002 39.9229 17.4322C39.9229 16.9258 40.2838 16.4195 41.0058 16.4195C42.0165 16.4195 42.4496 17.3598 42.4496 18.4448V20.9765C44.1101 18.0108 47.2866 16.1302 50.6075 16.1302C54.2172 16.1302 56.7439 18.1555 56.7439 20.8318C56.7439 20.8318 56.7439 21.6275 56.022 21.6275C55.3001 21.6275 55.2279 20.8318 55.2279 20.8318C55.2279 18.8065 53.2064 17.6492 50.6797 17.6492C47.2866 17.6492 43.8935 20.0362 42.955 24.1591C42.6662 25.0994 42.5218 26.5461 42.5218 28.4991V37.2513C42.5218 38.4087 42.0887 39.2767 41.0779 39.2767C40.356 39.2767 39.995 38.7703 39.995 38.264C39.995 37.396 41.0058 37.2513 41.0058 36.3834V19.3128H40.9336Z" fill="black" stroke="black" stroke-width="0.12" stroke-miterlimit="10"/>
<path d="M63.2414 13.3815C63.2414 12.5135 62.3029 12.3689 62.3029 11.5009C62.3029 10.9945 62.6639 10.4882 63.3858 10.4882C64.3965 10.4882 64.8297 11.4285 64.8297 12.5135V15.9855H71.3993C71.9046 15.9855 72.1934 16.3472 72.1934 16.7812C72.1934 17.0705 71.9046 17.5768 71.4715 17.5768H64.8297V32.5497C64.8297 36.1663 66.4179 38.1193 69.8832 38.1193C72.2656 38.1193 74.1426 36.962 74.1426 34.9367C74.1426 34.9367 74.1426 34.141 74.9368 34.141C75.6587 34.141 75.7309 34.9367 75.7309 34.9367C75.7309 37.6853 73.2763 39.6383 69.9554 39.6383C65.696 39.6383 63.3858 37.1067 63.3858 32.5497V17.5768H61.7254C61.2922 17.5768 61.0034 17.1428 61.0034 16.7812C61.0034 16.3472 61.22 15.9855 61.7976 15.9855H63.3858V13.3815H63.2414Z" fill="black" stroke="black" stroke-width="0.12" stroke-miterlimit="10"/>
<path d="M106.774 27.4864C106.63 33.3454 102.154 39.6383 94.429 39.6383C88.4369 39.6383 82.2283 36.0217 82.2283 29.5117C82.2283 24.1591 86.3433 20.1808 89.953 19.1682C87.4984 18.0832 84.3941 15.4792 84.3941 11.6456C84.3941 6.79927 88.7257 3.03796 94.7177 3.03796C99.4825 3.03796 102.226 5.64194 102.226 8.96925C102.226 12.2966 100.277 14.1049 97.3167 14.1049C95.8728 14.1049 95.2231 13.3092 95.2231 12.5136C95.2231 11.8626 95.8006 11.3562 96.3782 11.3562C97.3889 11.3562 97.3889 12.5136 98.1108 12.5136C99.6269 12.5136 100.71 11.3562 100.71 8.96925C100.71 6.58227 98.544 4.62928 94.7177 4.62928C89.5198 4.62928 85.9823 7.81192 85.9823 11.6456C85.9823 15.4792 90.0974 18.0832 92.8407 18.5895C92.8407 18.5895 93.4904 18.8065 93.4904 19.2405C93.4904 19.8192 93.1295 20.0362 92.6241 20.0362C88.6535 20.1085 83.8165 24.2315 83.8165 29.5117C83.8165 35.1537 89.231 38.1193 94.5012 38.1193C100.926 38.1193 104.825 33.056 105.33 28.0651C104.392 28.3544 103.164 28.5714 102.081 28.5714C99.6991 28.5714 96.8835 27.0524 96.8835 24.0868C96.8835 21.9891 98.7606 20.2532 101.287 20.2532C103.814 20.2532 106.341 22.7125 106.702 25.8228C108.074 25.2441 109.301 24.5208 111.033 24.5208C112.622 24.5208 113.993 25.4611 113.993 27.2694C113.993 28.3544 113.344 29.1501 112.622 29.1501C112.116 29.1501 111.611 28.8607 111.611 28.2821C111.611 27.5588 112.333 27.4141 112.333 26.9078C112.333 26.4014 111.755 26.1121 110.961 26.1121C110.095 26.1121 108.94 26.6184 106.846 27.5588L106.774 27.4864ZM105.258 26.4014C105.114 23.7251 103.092 21.7721 101.287 21.7721C99.6269 21.7721 98.3996 22.7125 98.3996 24.0868C98.3996 26.1121 100.421 26.9801 102.009 26.9801C103.092 26.9801 104.319 26.6908 105.258 26.3291V26.4014Z" fill="black" stroke="black" stroke-width="0.12" stroke-miterlimit="10"/>
<path d="M153.267 20.1085C153.267 31.2478 145.253 39.566 135.796 39.566C126.339 39.566 118.469 31.2478 118.469 20.1085C118.469 10.6329 124.823 0.434021 135.796 0.434021C145.253 0.434021 153.267 8.82462 153.267 20.1085ZM135.796 38.1194C144.243 38.1194 151.678 30.5244 151.678 20.1085C151.678 9.69261 144.243 1.95301 135.796 1.95301C130.887 1.95301 126.7 4.33999 126.7 9.40328C126.7 13.0199 129.443 15.6239 132.475 15.6239C135.002 15.6239 136.807 13.9602 136.807 12.3689C136.807 11.5733 135.652 11.5009 135.652 10.5606C135.652 9.83728 136.085 9.25861 136.807 9.25861C137.89 9.25861 138.611 10.1989 138.611 11.5009C138.611 14.9006 136.012 17.2152 132.475 17.2152C128.432 17.2152 125.183 13.9602 125.183 9.47561C125.183 8.24596 125.256 7.08863 125.689 6.07597C122.585 9.11395 120.058 14.3219 120.058 20.1809C120.058 30.4521 127.421 38.1917 135.868 38.1917L135.796 38.1194Z" fill="black" stroke="black" stroke-width="0.12" stroke-miterlimit="10"/>
<path d="M180.411 36.311C180.411 37.1067 181.422 37.3237 181.422 38.1917C181.422 38.698 181.133 39.2766 180.339 39.2766C179.256 39.2766 178.823 38.264 178.823 37.2513V35.5153C176.946 37.6853 173.553 39.566 169.438 39.566C163.157 39.566 157.815 35.1537 157.815 28.3544C157.815 20.9041 163.518 15.6238 169.943 15.6238C174.203 15.6238 177.307 17.3598 178.823 19.7468V5.28026C178.823 4.2676 179.256 3.25494 180.339 3.25494C181.133 3.25494 181.422 3.83361 181.422 4.33993C181.422 5.13559 180.484 5.35259 180.411 6.22059V36.311ZM178.462 22.4954C177.379 19.6745 175.069 17.1428 170.016 17.1428C164.312 17.1428 159.403 21.8445 159.403 28.3544C159.403 34.4303 164.096 38.047 169.438 38.047C173.77 38.047 176.802 35.8047 178.318 33.6347C178.823 32.839 178.823 31.0307 178.823 28.6437C178.823 25.9674 178.823 23.4358 178.39 22.4954H178.462Z" fill="black" stroke="black" stroke-width="0.12" stroke-miterlimit="10"/>
<path d="M198.099 39.566C192.179 39.566 186.62 35.2984 186.62 28.3544C186.62 21.4105 191.674 16.1302 198.027 16.1302C204.741 16.1302 208.639 21.0488 208.639 27.1971C208.639 27.7758 208.35 28.2098 207.628 28.2098H188.208C188.208 34.5027 193.045 38.047 198.171 38.047C201.348 38.047 204.019 36.8173 205.246 35.5877C205.535 35.2984 205.824 35.009 205.824 34.5027C205.824 34.2857 205.751 34.0687 205.751 33.8517C205.751 33.2007 206.185 32.6944 206.979 32.6944C207.628 32.6944 208.134 33.1284 208.134 33.8517C208.134 34.358 207.773 35.009 207.34 35.5154C206.04 37.3237 202.791 39.566 198.243 39.566H198.099ZM188.281 26.6184H207.123C207.051 21.9891 203.658 17.6492 198.027 17.6492C192.901 17.6492 188.786 21.3381 188.208 26.6184H188.281Z" fill="black" stroke="black" stroke-width="0.12" stroke-miterlimit="10"/>
<path d="M204.244 65.432C204.244 65.848 204.308 66.168 204.436 66.392C204.58 66.616 204.86 66.728 205.276 66.728H206.332C206.636 66.728 206.844 66.624 206.956 66.416C207.068 66.192 207.124 65.864 207.124 65.432V60.032H205.684V58.688H208.324V66.104C208.324 66.6 208.18 67.04 207.892 67.424C207.62 67.808 207.228 68.016 206.716 68.048H204.628C204.34 68.032 204.092 67.96 203.884 67.832C203.676 67.688 203.508 67.52 203.38 67.328C203.268 67.136 203.18 66.92 203.116 66.68C203.068 66.44 203.044 66.192 203.044 65.936V52.112C203.044 51.84 203.068 51.576 203.116 51.32C203.18 51.064 203.276 50.84 203.404 50.648C203.548 50.456 203.724 50.304 203.932 50.192C204.14 50.064 204.396 50 204.7 50H206.644C207.156 50.048 207.564 50.272 207.868 50.672C208.172 51.056 208.324 51.48 208.324 51.944V56.072H207.124V52.616C207.124 52.184 207.076 51.864 206.98 51.656C206.884 51.432 206.684 51.32 206.38 51.32H204.892C204.716 51.32 204.564 51.44 204.436 51.68C204.308 51.904 204.244 52.208 204.244 52.592V65.432Z" fill="black"/>
<path d="M190.689 55.472V68.048H189.489V50H190.737L193.569 62.648V50H194.769V68.048H193.545L190.689 55.472Z" fill="black"/>
<path d="M178.596 68.048V50H179.796V68.048H178.596Z" fill="black"/>
<path d="M163.516 50H164.836L166.852 64.352L168.964 50H170.284L167.548 68.048H166.156L163.516 50Z" fill="black"/>
<path d="M154.087 68.048V50H155.287V68.048H154.087Z" fill="black"/>
<path d="M140.461 68.048V50H141.661V66.728H145.789V68.048H140.461Z" fill="black"/>
<path d="M116.496 52.592V57.368C116.496 57.592 116.52 57.776 116.568 57.92C116.616 58.064 116.776 58.136 117.048 58.136H119.16C119.272 58.136 119.408 58.176 119.568 58.256C119.728 58.32 119.88 58.424 120.024 58.568C120.168 58.696 120.288 58.856 120.384 59.048C120.496 59.224 120.552 59.416 120.552 59.624V65.936C120.552 66.464 120.424 66.936 120.168 67.352C119.928 67.768 119.504 68 118.896 68.048H116.928C116.432 68 116.032 67.784 115.728 67.4C115.424 67 115.272 66.568 115.272 66.104V61.976H116.472V65.456C116.472 65.888 116.512 66.208 116.592 66.416C116.688 66.624 116.896 66.728 117.216 66.728H118.704C118.944 66.728 119.112 66.616 119.208 66.392C119.304 66.152 119.352 65.84 119.352 65.456V60.2C119.352 59.944 119.296 59.76 119.184 59.648C119.088 59.52 118.88 59.456 118.56 59.456H116.784C116.624 59.456 116.456 59.432 116.28 59.384C116.104 59.32 115.944 59.232 115.8 59.12C115.656 58.992 115.536 58.832 115.44 58.64C115.344 58.432 115.296 58.192 115.296 57.92V52.112C115.296 51.584 115.416 51.112 115.656 50.696C115.912 50.28 116.336 50.048 116.928 50H118.896C119.408 50.048 119.816 50.272 120.12 50.672C120.424 51.056 120.576 51.48 120.576 51.944V56.072H119.376V52.616C119.376 52.184 119.328 51.864 119.232 51.656C119.136 51.432 118.936 51.32 118.632 51.32H117.144C116.872 51.32 116.696 51.44 116.616 51.68C116.536 51.904 116.496 52.208 116.496 52.592Z" fill="black"/>
<path d="M102.917 65.432C102.917 65.848 102.981 66.168 103.109 66.392C103.253 66.616 103.533 66.728 103.949 66.728H105.053C105.357 66.728 105.557 66.624 105.653 66.416C105.749 66.192 105.797 65.864 105.797 65.432V50H106.997V66.056C106.997 66.536 106.861 66.984 106.589 67.4C106.333 67.8 105.949 68.016 105.437 68.048H103.301C103.013 68.032 102.765 67.96 102.557 67.832C102.349 67.688 102.181 67.52 102.053 67.328C101.941 67.136 101.853 66.92 101.789 66.68C101.741 66.44 101.717 66.192 101.717 65.936V50H102.917V65.432Z" fill="black"/>
<path d="M89.3614 65.432C89.3614 65.848 89.4254 66.168 89.5534 66.392C89.6974 66.616 89.9774 66.728 90.3934 66.728H91.4974C91.8014 66.728 92.0014 66.624 92.0974 66.416C92.1934 66.192 92.2414 65.864 92.2414 65.432V52.616C92.2414 52.184 92.1934 51.864 92.0974 51.656C92.0014 51.432 91.8014 51.32 91.4974 51.32H90.0094C89.8334 51.32 89.6814 51.44 89.5534 51.68C89.4254 51.904 89.3614 52.208 89.3614 52.592V65.432ZM93.4414 66.056C93.4414 66.536 93.3054 66.984 93.0334 67.4C92.7774 67.8 92.3934 68.016 91.8814 68.048H89.7454C89.4574 68.032 89.2094 67.96 89.0014 67.832C88.7934 67.688 88.6254 67.52 88.4974 67.328C88.3854 67.136 88.2974 66.92 88.2334 66.68C88.1854 66.44 88.1614 66.192 88.1614 65.936V52.112C88.1614 51.568 88.2814 51.08 88.5214 50.648C88.7774 50.216 89.2094 50 89.8174 50H91.7614C92.2734 50.048 92.6814 50.272 92.9854 50.672C93.2894 51.056 93.4414 51.48 93.4414 51.944V66.056Z" fill="black"/>
<path d="M78.708 68.048V50H79.908V68.048H78.708Z" fill="black"/>
<path d="M66.3289 65.432C66.3289 65.848 66.3929 66.168 66.5209 66.392C66.6489 66.616 66.9209 66.728 67.3369 66.728H68.4649C68.7689 66.728 68.9689 66.624 69.0649 66.416C69.1609 66.192 69.2089 65.864 69.2089 65.432V61.976H70.4089V66.056C70.4089 66.536 70.2729 66.984 70.0009 67.4C69.7449 67.8 69.3609 68.016 68.8489 68.048H66.7129C66.4249 68.032 66.1769 67.96 65.9689 67.832C65.7609 67.688 65.5929 67.52 65.4649 67.328C65.3529 67.136 65.2649 66.92 65.2009 66.68C65.1529 66.44 65.1289 66.192 65.1289 65.936V52.112C65.1289 51.568 65.2729 51.08 65.5609 50.648C65.8489 50.216 66.2569 50 66.7849 50H68.7289C69.2409 50.048 69.6489 50.272 69.9529 50.672C70.2569 51.056 70.4089 51.48 70.4089 51.944V56.072H69.2089V52.592C69.2089 52.16 69.1609 51.84 69.0649 51.632C68.9689 51.424 68.7689 51.32 68.4649 51.32H66.9769C66.8009 51.32 66.6489 51.44 66.5209 51.68C66.3929 51.904 66.3289 52.208 66.3289 52.592V65.432Z" fill="black"/>
<path d="M55.6755 68.048V50H56.8755V68.048H55.6755Z" fill="black"/>
<path d="M43.3899 51.32V58.952H44.7099C44.9979 58.952 45.2299 58.856 45.4059 58.664C45.5819 58.456 45.7179 58.192 45.8139 57.872C45.9259 57.552 46.0059 57.2 46.0539 56.816C46.1019 56.416 46.1419 56.032 46.1739 55.664C46.1899 55.552 46.1979 55.456 46.1979 55.376C46.1979 55.296 46.2059 55.208 46.2219 55.112C46.1899 54.68 46.1419 54.24 46.0779 53.792C46.0299 53.344 45.9419 52.936 45.8139 52.568C45.7019 52.2 45.5419 51.904 45.3339 51.68C45.1259 51.44 44.8459 51.32 44.4939 51.32H43.3899ZM42.1899 68.048V50H45.0459C45.3019 50 45.5659 50.128 45.8379 50.384C46.1259 50.624 46.3819 50.968 46.6059 51.416C46.8459 51.848 47.0379 52.376 47.1819 53C47.3259 53.624 47.3979 54.312 47.3979 55.064C47.3979 55.96 47.3179 56.736 47.1579 57.392C47.0139 58.032 46.8299 58.568 46.6059 59C46.3819 59.432 46.1259 59.752 45.8379 59.96C45.5499 60.168 45.2779 60.272 45.0219 60.272H43.3899V68.048H42.1899Z" fill="black"/>
<path d="M29.8353 52.592V57.368C29.8353 57.592 29.8593 57.776 29.9073 57.92C29.9553 58.064 30.1153 58.136 30.3873 58.136H32.4993C32.6113 58.136 32.7473 58.176 32.9073 58.256C33.0673 58.32 33.2193 58.424 33.3633 58.568C33.5073 58.696 33.6273 58.856 33.7233 59.048C33.8353 59.224 33.8913 59.416 33.8913 59.624V65.936C33.8913 66.464 33.7633 66.936 33.5073 67.352C33.2673 67.768 32.8433 68 32.2353 68.048H30.2673C29.7713 68 29.3713 67.784 29.0673 67.4C28.7633 67 28.6113 66.568 28.6113 66.104V61.976H29.8113V65.456C29.8113 65.888 29.8513 66.208 29.9313 66.416C30.0273 66.624 30.2353 66.728 30.5553 66.728H32.0433C32.2833 66.728 32.4513 66.616 32.5473 66.392C32.6433 66.152 32.6913 65.84 32.6913 65.456V60.2C32.6913 59.944 32.6353 59.76 32.5233 59.648C32.4273 59.52 32.2193 59.456 31.8993 59.456H30.1233C29.9633 59.456 29.7953 59.432 29.6193 59.384C29.4433 59.32 29.2833 59.232 29.1393 59.12C28.9953 58.992 28.8753 58.832 28.7793 58.64C28.6833 58.432 28.6353 58.192 28.6353 57.92V52.112C28.6353 51.584 28.7553 51.112 28.9953 50.696C29.2513 50.28 29.6753 50.048 30.2673 50H32.2353C32.7473 50.048 33.1553 50.272 33.4593 50.672C33.7633 51.056 33.9153 51.48 33.9153 51.944V56.072H32.7153V52.616C32.7153 52.184 32.6673 51.864 32.5713 51.656C32.4753 51.432 32.2753 51.32 31.9713 51.32H30.4833C30.2113 51.32 30.0353 51.44 29.9553 51.68C29.8753 51.904 29.8353 52.208 29.8353 52.592Z" fill="black"/>
<path d="M16.2559 65.432C16.2559 65.848 16.3199 66.168 16.4479 66.392C16.5919 66.616 16.8719 66.728 17.2879 66.728H18.3919C18.6959 66.728 18.8959 66.624 18.9919 66.416C19.0879 66.192 19.1359 65.864 19.1359 65.432V50H20.3359V66.056C20.3359 66.536 20.1999 66.984 19.9279 67.4C19.6719 67.8 19.2879 68.016 18.7759 68.048H16.6399C16.3519 68.032 16.1039 67.96 15.8959 67.832C15.6879 67.688 15.5199 67.52 15.3919 67.328C15.2799 67.136 15.1919 66.92 15.1279 66.68C15.0799 66.44 15.0559 66.192 15.0559 65.936V50H16.2559V65.432Z" fill="black"/>
<path d="M2.328 60.656H4.344L3.336 53.672L2.328 60.656ZM5.448 68.048L4.536 62.072H2.112L1.32 68.048H0L2.64 50H4.032L6.768 68.048H5.448Z" fill="black"/>
</svg>
